<svg width="29" height="25" viewBox="0 0 29 25" fill="none" xmlns="http://www.w3.org/2000/svg">
<path d="M28.7932 24.4202C27.8439 24.3948 26.8946 24.3693 25.9453 24.3523C27.4802 22.1873 28.2875 19.6741 28.2875 17.0421C28.2875 14.3252 27.4269 11.7186 25.7945 9.5111C24.2241 7.38851 22.0682 5.78382 19.5485 4.84988C19.584 4.34895 19.5751 3.95839 19.513 3.67821C19.4509 3.39802 19.1848 2.43012 18.333 1.58957C17.4458 0.71506 16.2481 0.27356 14.7665 0.27356C13.2937 0.27356 12.1048 0.70657 11.2354 1.55561C10.5433 2.23484 10.1885 3.04992 9.95778 3.67821C9.85132 3.97537 9.80696 4.35744 9.84244 4.82441C7.30502 5.74137 5.13136 7.34606 3.54326 9.47714C1.89305 11.6931 1.02358 14.3082 1.02358 17.0421C1.02358 19.6826 1.83094 22.1957 3.36582 24.3608C2.49635 24.3778 1.37847 24.4032 0.509001 24.4287C0.304942 24.4372 0.304942 24.7259 0.509001 24.7259C2.15921 24.7768 4.07558 24.8023 5.72579 24.8278C8.7423 24.8787 11.7588 24.9042 14.7753 24.9042C17.7918 24.9042 20.8084 24.8787 23.8249 24.8278C25.4839 24.8023 27.1519 24.7683 28.811 24.7174C28.9884 24.7174 28.9973 24.4287 28.7932 24.4202ZM19.4687 5.4527C19.4775 5.41874 19.513 5.39326 19.5485 5.41025C24.4637 7.31209 27.7463 11.9394 27.7463 17.0421C27.7463 18.3496 27.5334 19.6147 27.1253 20.8203C27.0809 20.9562 26.8769 20.9477 26.8503 20.8118L26.4066 18.8251C26.38 18.7147 26.38 18.5958 26.3978 18.477C26.4421 18.2307 26.4421 18.01 26.3623 17.8402C26.2824 17.6789 26.1494 17.5685 25.9542 17.5175C24.3749 17.0421 19.6372 14.427 19.2912 14.2403C19.0694 14.0365 18.8476 13.8582 18.6436 13.7138C18.3863 13.5355 18.2443 13.2469 18.2709 12.9497L18.3508 12.1771C18.6258 11.6507 18.8831 10.9884 19.0517 10.1818C19.0694 10.0885 19.1404 10.0035 19.2291 9.96959C19.3001 9.93562 19.3622 9.89317 19.4154 9.84223C19.655 9.6045 19.8147 9.18847 19.7969 8.95923C19.7969 8.89131 19.8147 8.81489 19.859 8.75546C20.4091 7.94887 20.3825 6.87059 20.2139 6.27627C20.1341 6.01306 20.0099 5.84326 19.8413 5.78382C19.7171 5.73288 19.584 5.73288 19.4598 5.78382C19.4421 5.79231 19.4332 5.78382 19.4332 5.78382C19.4332 5.78382 19.4243 5.77533 19.4243 5.75835C19.4421 5.63949 19.4509 5.54609 19.4687 5.4527ZM19.1049 17.4072L19.2469 17.5175C19.0251 17.4921 18.7944 17.4751 18.5726 17.4581C18.5282 17.4581 18.4129 17.4496 18.2621 17.4326C18.1201 17.4241 18.0225 17.3053 18.0314 17.1779C18.129 15.9383 18.1733 14.9195 18.2 14.3082C18.2088 14.1044 18.4572 13.994 18.6258 14.1214C18.8121 14.2657 19.0517 14.4695 19.3178 14.7327C20.0454 15.4374 20.4801 16.0317 20.5599 16.2525L19.167 16.8977C18.963 16.9996 18.9275 17.2713 19.1049 17.4072ZM19.3001 6.42909C19.3178 6.38664 19.513 6.01306 19.7082 6.08948C19.7526 6.10646 19.8236 6.19985 19.8679 6.36117C20.0099 6.8621 20.0808 7.91491 19.4598 8.69603C19.4332 8.72999 19.4154 8.78093 19.4243 8.82338C19.4509 8.96772 19.3356 9.40922 19.1493 9.58752C19.2025 9.17998 19.238 8.76395 19.2469 8.33094C19.2469 8.22056 19.3178 8.11868 19.4243 8.08472L19.4332 8.07623C19.513 8.05076 19.5663 7.96585 19.5485 7.88095C19.4864 7.55831 19.6284 7.17625 19.7171 6.98097C19.7348 6.93852 19.726 6.88757 19.6816 6.8621C19.6639 6.84512 19.6372 6.84512 19.6195 6.84512C19.5929 6.84512 19.5751 6.85361 19.5574 6.87059C19.4864 6.92154 19.4154 6.97248 19.3356 7.02342C19.309 7.0404 19.2735 7.0404 19.2469 7.02342C19.2202 7.00644 19.2025 6.98097 19.2025 6.94701C19.2114 6.80267 19.2469 6.63286 19.3001 6.42909ZM10.2772 3.79707C10.5966 2.93105 11.4483 0.621666 14.7487 0.621666C16.1328 0.621666 17.2418 1.0292 18.058 1.83579C18.8387 2.60842 19.0872 3.49991 19.1404 3.75462C19.2912 4.42536 19.0694 5.74137 18.9275 6.47154C18.9009 6.5989 18.8831 6.70928 18.8654 6.78569C18.8387 6.89606 18.8387 7.00644 18.8476 7.11681C18.8476 7.15927 18.8565 7.20172 18.8565 7.23568C18.9896 8.89131 18.6791 10.2413 18.3951 11.0733C18.3153 11.3196 18.2177 11.5658 18.1112 11.795L18.0757 11.8629C17.8539 12.3299 17.5257 12.678 17.295 12.8903C17.2861 12.8988 17.2773 12.8988 17.2684 12.8903C17.2595 12.8903 17.2506 12.8818 17.2506 12.8733C17.2506 12.8054 17.2595 12.729 17.2595 12.6441C17.2595 12.6016 17.2418 12.5592 17.1974 12.5422C17.1353 12.5167 17.0643 12.5422 17.0466 12.6016C16.878 13.094 16.4078 14.2233 15.7779 14.2233C15.3254 14.2233 15.2189 14.011 15.1125 13.7988C15.0326 13.6289 14.9439 13.4591 14.6777 13.4591C14.3761 13.4591 14.2696 13.6629 14.172 13.8582C14.0656 14.0704 13.9591 14.2657 13.6131 14.2657C13.6042 14.2657 13.6042 14.2657 13.5953 14.2657C13.0009 14.2572 12.5041 13.0686 12.3178 12.5592C12.3 12.5167 12.2645 12.4912 12.2113 12.4912C12.2024 12.4912 12.1936 12.4912 12.1936 12.4912C12.1403 12.4997 12.1048 12.5422 12.1048 12.6016C12.1048 12.6356 12.1048 12.6695 12.1137 12.7035C12.1137 12.729 12.096 12.7375 12.0871 12.7375C12.0782 12.7375 12.0605 12.7459 12.0427 12.729C11.7854 12.5167 11.4305 12.1771 11.2265 11.778C10.9071 11.0564 10.703 10.2413 10.6143 9.35828C10.5256 8.46679 10.5877 7.69416 10.6232 7.32058C10.6321 7.23568 10.6409 7.15927 10.6587 7.07436C10.6675 6.98946 10.6675 6.90455 10.6321 6.81965C10.6232 6.78569 10.6054 6.74324 10.5877 6.70078C10.4369 6.25928 9.96665 4.6546 10.2772 3.79707ZM17.6765 15.3185L16.7982 16.3798C16.7272 16.4647 16.5941 16.4562 16.5409 16.3713C16.2392 15.9383 15.8311 15.5648 15.3343 15.2251C15.281 15.1912 15.2988 15.1063 15.3698 15.0978C15.9464 15.0129 16.4522 14.7412 16.7449 14.3931C16.9756 14.3167 17.2329 14.2148 17.4724 14.1129C17.641 14.045 17.8185 14.1638 17.8185 14.3336C17.8185 14.5035 17.783 14.9365 17.7652 15.1317C17.7386 15.2082 17.712 15.2676 17.6765 15.3185ZM17.7386 16.1081C17.7209 16.4647 17.6854 16.9062 17.641 17.3987C17.2861 17.3732 16.9579 17.3562 16.9046 17.3477C16.6562 17.3392 16.4078 17.3308 16.1594 17.3223C16.2304 17.2034 16.3013 17.0845 16.3457 17.0081C16.3812 16.9572 16.4522 16.9402 16.5054 16.9911C16.6296 17.11 16.8337 17.093 16.9401 16.9572L17.6055 16.0657C17.6499 16.0063 17.7386 16.0402 17.7386 16.1081ZM12.8944 16.4647C12.8412 16.5411 12.7259 16.5411 12.6638 16.4732L11.7322 15.4714C11.6346 15.361 11.5725 15.2336 11.5636 15.0893C11.537 14.8006 11.5193 14.5204 11.5015 14.2657C11.4927 14.1384 11.6435 14.0535 11.7588 14.1129C12.0782 14.2912 12.5041 14.4865 13.0009 14.6138C13.2405 14.8006 13.6397 14.9789 13.9946 15.0468C14.0833 15.0638 14.1099 15.1657 14.0478 15.2251C13.5953 15.6242 13.205 16.0402 12.8944 16.4647ZM13.2671 17.3223C13.1162 17.3308 12.9654 17.3308 12.8146 17.3392C12.7081 17.3477 12.2379 17.3732 11.8298 17.3987C11.7943 16.9996 11.7588 16.5072 11.7322 16.2525C11.7322 16.2015 11.8032 16.1761 11.8387 16.2185L12.4952 17.0081C12.6283 17.1609 12.8678 17.1694 13.0098 17.0251C13.0453 16.9826 13.1162 16.9911 13.1429 17.0421L13.2671 17.3223ZM10.011 17.1609L8.70682 16.7619C8.56486 16.7194 8.50276 16.5666 8.58261 16.4393C9.05283 15.6751 9.68275 14.9365 10.5877 14.4186C10.8361 14.2742 11.1555 14.427 11.1821 14.7072C11.2354 15.4119 11.3418 16.2864 11.4572 17.1355C11.4749 17.2883 11.3596 17.4241 11.1999 17.4411C11.191 17.4411 11.1821 17.4411 11.1733 17.4411C10.8361 17.4666 10.4901 17.5006 10.153 17.5345C10.2417 17.4072 10.1796 17.2119 10.011 17.1609ZM11.4217 12.9922L11.4039 12.8054C11.6257 13.1025 11.8919 13.4082 12.2113 13.6969C12.3 13.7733 12.371 13.8582 12.4331 13.9516C12.1048 13.7988 11.8475 13.6205 11.679 13.4761C11.5281 13.3573 11.4305 13.179 11.4217 12.9922ZM13.6397 16.3289C13.8792 16.0147 14.1632 15.7431 14.4914 15.4883C14.6156 15.3949 14.8019 15.3865 14.935 15.4714C15.2988 15.7091 15.6271 15.9723 15.8843 16.2864C16.0352 16.4647 16.0529 16.711 15.9464 16.9232L15.7513 17.3053C15.423 17.2968 15.0947 17.2968 14.7753 17.2968C14.4293 17.2968 14.0744 17.3053 13.7284 17.3053L13.5687 16.8977C13.48 16.711 13.5155 16.4987 13.6397 16.3289ZM17.5434 13.6289C17.437 13.6714 17.3394 13.7054 17.2329 13.7393C17.2329 13.7393 17.2329 13.7308 17.224 13.7308C17.224 13.7308 17.224 13.7308 17.2152 13.7223C17.3749 13.5695 17.6321 13.2978 17.9072 12.8903L17.8717 13.179C17.8717 13.3827 17.7386 13.5525 17.5434 13.6289ZM10.3038 6.99795C10.2949 7.02342 10.2772 7.0404 10.2594 7.04889C10.2328 7.05738 10.2062 7.05738 10.1796 7.04889C10.082 6.99795 9.99327 6.93852 9.91342 6.87059C9.87793 6.84512 9.8247 6.84512 9.78921 6.87059C9.75372 6.89606 9.73598 6.94701 9.75372 6.98097C9.85132 7.19323 9.99327 7.59228 9.91342 7.9234C9.89568 7.99132 9.94004 8.05925 10.011 8.07623C10.0199 8.07623 10.0199 8.07623 10.0288 8.07623C10.1264 8.11019 10.1973 8.20358 10.1973 8.30547C10.1973 8.67056 10.2062 9.04413 10.2417 9.40073C10.2506 9.46016 10.2506 9.5111 10.2594 9.57054C10.2594 9.57903 10.2506 9.58752 10.2506 9.58752C10.2417 9.58752 10.2328 9.58752 10.2239 9.57903C10.0376 9.40073 9.93117 8.95074 9.94891 8.8064C9.95778 8.75546 9.94004 8.71301 9.91342 8.67056C9.30125 7.88944 9.36335 6.83663 9.51418 6.34419C9.55854 6.18287 9.62951 6.08948 9.67387 6.0725C9.69162 6.06401 9.70936 6.06401 9.72711 6.06401C9.91342 6.06401 10.0731 6.41211 10.082 6.41211C10.1441 6.57343 10.2683 6.89606 10.3038 6.99795ZM1.53816 17.0421C1.53816 11.9139 4.83858 7.27813 9.79808 5.39327C9.84244 5.37628 9.89568 5.40176 9.90455 5.4527C9.91342 5.52062 9.93117 5.60552 9.94004 5.67345C9.94891 5.72439 9.90455 5.76684 9.85132 5.75835C9.75372 5.74137 9.65613 5.74986 9.55854 5.78382C9.38997 5.85175 9.26576 6.02155 9.18591 6.27627C9.00847 6.87059 8.98185 7.90642 9.51418 8.7215C9.57628 8.8064 9.6029 8.91678 9.6029 9.01866C9.59403 9.27337 9.77147 9.62997 9.99327 9.84223C10.0465 9.89317 10.1086 9.93562 10.1707 9.96959C10.2772 10.0205 10.3482 10.1139 10.3659 10.2158C10.4546 10.7507 10.6143 11.4469 11.0136 12.1771L11.0845 13.145C11.1112 13.4506 10.9515 13.7393 10.6853 13.9006C10.1973 14.1893 9.7626 14.5035 9.38109 14.8601C8.139 15.3355 4.17318 16.8808 3.62311 17.4157C3.35694 17.6704 3.32145 17.9251 3.4013 18.1968C3.35694 18.443 3.06416 19.8269 2.56733 21.2278C2.52297 21.3467 2.3544 21.3467 2.31004 21.2278C1.80433 19.9033 1.53816 18.4939 1.53816 17.0421ZM3.79168 24.0551C3.41905 23.5372 3.09078 22.9854 2.80687 22.4165C2.68266 22.1703 2.67379 21.8901 2.77138 21.6354C3.13514 20.659 3.41018 19.6401 3.56987 18.9779C3.59649 18.876 3.72957 18.859 3.7828 18.9439C3.97799 19.2411 4.19092 19.5637 4.31513 19.9458C4.33287 20.0052 4.42159 19.9882 4.42159 19.9288C4.40385 19.5892 4.33287 19.1137 4.08445 18.7656C3.69408 18.2307 3.561 17.9336 3.86265 17.6449C4.23528 17.2883 6.66623 16.2779 8.44952 15.5732C8.55599 15.5308 8.64471 15.6497 8.58261 15.7346C8.36968 16.0317 8.18336 16.3544 8.03254 16.694C7.9793 16.7874 8.03254 16.8977 8.139 16.9317L9.4432 17.3308C9.59403 17.3817 9.57628 17.594 9.41658 17.6109C8.42291 17.7298 7.42923 17.8826 6.4533 18.0609C6.2315 18.1034 6.02744 18.2138 5.88549 18.3751C5.70805 18.5873 5.64594 18.8505 5.69918 19.1137L6.47992 24.2929C6.22263 24.2929 5.97421 24.3014 5.71692 24.3014C5.27331 24.3099 4.82971 24.3183 4.37723 24.3268C4.13769 24.3438 3.92476 24.2419 3.79168 24.0551ZM6.8348 24.3014L6.03632 19.0543C6.00083 18.8845 6.04519 18.7147 6.1694 18.5873C6.24925 18.4939 6.37346 18.4345 6.50654 18.409C9.23914 17.8996 12.0161 17.6364 14.7753 17.6364C17.5346 17.6364 20.3115 17.8911 23.0441 18.409C23.1772 18.4345 23.3014 18.5024 23.3813 18.5873C23.4966 18.7147 23.5498 18.8845 23.5143 19.0543L22.6271 24.3014C20.001 24.2674 17.3749 24.2419 14.7487 24.2419C12.1137 24.2419 9.46982 24.2589 6.8348 24.3014ZM23.3192 24.3099C23.1417 24.3099 23.0175 24.157 23.0441 23.9957L23.8604 19.1222C23.9225 18.842 23.8337 18.5619 23.6297 18.3411C23.4966 18.1968 23.3103 18.1119 23.1062 18.0694C22.1214 17.8826 21.1277 17.7383 20.1341 17.6194C19.9744 17.6024 19.8236 17.5345 19.6993 17.4411L19.5929 17.3562C19.4864 17.2713 19.5042 17.1185 19.6284 17.0591C19.6284 17.0591 20.6753 16.6685 20.9148 16.4053C20.9947 16.3119 20.9503 16.1166 20.5866 15.6327C20.5688 15.6072 20.5422 15.5732 20.5244 15.5478C20.4446 15.4459 20.5688 15.31 20.6841 15.378C22.3166 16.2525 24.7653 17.5091 25.8477 17.8317C25.9719 17.8656 26.0163 17.9336 26.0429 17.976C26.1937 18.2987 25.8477 19.0713 25.5194 19.8184C25.2533 20.4128 24.9605 21.075 24.8097 21.7033C24.7919 21.7882 24.9073 21.8307 24.9516 21.7542C25.2089 21.2618 25.6259 20.4382 25.8388 19.9543C25.8832 19.8524 25.9276 19.759 25.9719 19.6571C26.0251 19.5383 26.2115 19.5552 26.2381 19.6826L26.6196 21.4231C26.6817 21.7118 26.6551 22.0175 26.522 22.2807C26.2292 22.8835 25.8921 23.4608 25.5106 24.0042C25.3686 24.2165 25.1202 24.3353 24.854 24.3268C24.4991 24.3183 24.1531 24.3183 23.7983 24.3099C23.6386 24.3099 23.4789 24.3099 23.3192 24.3099Z" fill="#272A24"/>
</svg>
